<?xml version="1.0" standalone="no"?>
<!DOCTYPE svg PUBLIC "-//W3C//DTD SVG 20010904//EN"
 "http://www.w3.org/TR/2001/REC-SVG-20010904/DTD/svg10.dtd">
<svg version="1.0" xmlns="http://www.w3.org/2000/svg"
 width="1280.000000pt" height="839.000000pt" viewBox="0 0 1280.000000 839.000000"
 preserveAspectRatio="xMidYMid meet">
<metadata>
Created by potrace 1.15, written by Peter Selinger 2001-2017
</metadata>
<g transform="translate(0.000000,839.000000) scale(0.100000,-0.100000)"
fill="#000000" stroke="none">
<path d="M600 8379 c-201 -15 -554 -72 -591 -95 -20 -12 4 -23 74 -34 363 -58
846 -234 1230 -447 594 -331 990 -728 1093 -1100 18 -66 26 -73 96 -73 66 0
261 -38 383 -75 166 -49 390 -162 525 -264 186 -139 331 -310 423 -497 43 -87
89 -213 102 -284 12 -58 21 -62 73 -36 277 140 673 96 1092 -121 136 -70 361
-216 481 -312 l76 -61 6 -83 c9 -109 29 -166 89 -245 l49 -65 -17 -41 c-34
-83 -15 -185 41 -222 l24 -16 -49 -34 c-27 -19 -51 -34 -53 -34 -2 0 -9 18
-16 40 -23 78 -150 136 -159 73 -8 -53 51 -134 113 -157 6 -1 -15 -30 -45 -62
-31 -32 -66 -74 -79 -92 l-23 -33 -19 30 c-21 34 -53 58 -97 70 -40 12 -67 -6
-57 -38 11 -36 64 -89 95 -96 17 -4 32 -10 35 -15 3 -4 -8 -36 -24 -71 -33
-74 -57 -153 -67 -224 -3 -27 -8 -53 -10 -57 -3 -4 -21 0 -40 8 -39 16 -84 12
-122 -12 -51 -33 23 -81 106 -70 l49 6 12 -107 c7 -60 14 -117 15 -128 1 -17
-6 -20 -46 -21 -61 -2 -118 -36 -118 -70 0 -17 7 -25 26 -30 37 -9 91 2 121
25 14 12 29 21 33 21 4 0 15 -24 25 -52 9 -29 30 -81 45 -115 15 -34 26 -64
22 -67 -3 -3 -16 -6 -30 -6 -53 0 -123 -67 -109 -104 12 -32 110 -9 139 32 8
11 19 22 25 24 6 2 34 -31 61 -72 28 -41 60 -87 72 -102 l20 -26 -34 -12 c-54
-18 -100 -109 -63 -123 25 -9 95 30 112 62 8 17 18 31 20 31 9 0 175 -134 175
-142 0 -4 -13 -14 -28 -22 -31 -16 -68 -86 -59 -110 15 -39 97 6 121 67 10 27
19 36 28 31 57 -33 188 -126 188 -133 0 -4 -11 -13 -25 -19 -46 -21 -73 -112
-34 -120 23 -4 69 37 86 77 l15 36 44 -49 c24 -26 44 -52 44 -56 0 -5 -13 -11
-30 -15 -31 -7 -83 -60 -77 -79 2 -6 18 -12 36 -14 26 -3 39 3 66 33 l34 36
24 -38 c32 -51 67 -120 67 -133 0 -5 -11 -10 -24 -10 -31 0 -76 -36 -76 -61 0
-26 59 -26 93 1 15 12 28 16 32 11 5 -9 35 -100 35 -108 0 -2 -7 -3 -16 -3
-27 0 -74 -33 -74 -52 0 -14 8 -18 39 -18 22 0 43 5 46 10 13 21 24 -2 31 -68
4 -37 5 -69 3 -72 -2 -3 -17 -4 -32 -2 -32 4 -77 -21 -77 -43 0 -20 46 -30 76
-16 14 6 29 11 34 11 11 0 13 -70 4 -147 -6 -46 -9 -51 -25 -43 -25 14 -76 12
-85 -2 -12 -19 36 -50 68 -44 33 6 33 7 -9 -127 l-24 -77 -39 0 c-49 0 -55
-26 -10 -42 34 -11 35 -5 -9 -118 -28 -72 -30 -75 -59 -72 -40 4 -48 -12 -17
-36 l25 -20 -34 -79 c-30 -66 -39 -79 -63 -83 -25 -5 -30 -1 -53 45 -22 43
-30 50 -59 53 -29 3 -40 -3 -81 -46 -26 -27 -53 -67 -60 -88 -7 -22 -27 -71
-46 -110 -32 -65 -35 -81 -44 -212 -8 -111 -16 -161 -40 -235 -33 -103 -38
-147 -16 -147 7 0 47 25 89 55 90 64 137 89 269 139 89 34 106 45 195 127 104
95 143 147 143 190 0 38 -18 49 -116 64 -48 8 -89 17 -91 19 -3 3 3 18 13 35
16 28 22 30 51 25 37 -7 44 6 13 27 -19 14 -18 16 28 95 l47 81 39 -5 c30 -4
38 -2 34 9 -2 8 -14 18 -26 24 -12 5 -20 14 -18 20 3 5 24 54 48 107 l43 97
32 -5 c18 -4 40 -3 49 0 15 6 15 8 -1 26 -10 11 -26 20 -37 20 -10 0 -18 3
-18 6 0 4 14 50 31 104 31 97 32 98 55 88 18 -8 31 -8 51 1 l28 13 -24 19
c-13 10 -34 19 -48 19 -23 0 -25 3 -19 32 3 18 8 79 12 136 7 97 8 103 27 98
28 -7 79 21 75 42 -3 13 -14 17 -50 16 l-47 0 -5 40 c-3 23 -8 62 -11 89 -6
45 -5 47 19 47 30 0 82 42 72 58 -9 16 -69 15 -84 0 -16 -16 -20 -10 -42 66
l-19 66 23 0 c31 0 76 36 76 61 0 26 -59 26 -91 0 l-23 -19 -26 57 c-14 31
-37 78 -52 105 -29 51 -29 66 2 66 10 0 31 16 46 36 24 31 26 37 12 50 -13 14
-19 14 -50 1 -20 -8 -43 -25 -51 -38 l-16 -23 -23 30 c-12 16 -42 50 -66 75
l-43 47 40 31 c42 34 64 92 43 113 -16 16 -74 -21 -94 -61 -9 -18 -19 -35 -22
-38 -5 -5 -176 147 -176 157 0 3 13 12 29 21 30 17 57 78 47 104 -3 8 -14 15
-25 15 -27 0 -91 -57 -91 -81 0 -30 -16 -23 -79 33 -63 56 -71 68 -45 68 9 0
32 16 50 36 36 38 45 81 18 91 -24 9 -94 -28 -110 -59 -8 -15 -17 -28 -19 -28
-2 0 -27 34 -55 75 l-50 74 39 11 c43 11 94 62 89 89 -7 36 -117 20 -139 -20
-5 -11 -13 -19 -18 -19 -6 0 -31 54 -68 148 -4 8 7 12 33 12 41 0 101 30 110
55 18 45 -80 63 -130 24 -15 -12 -29 -19 -32 -16 -9 8 -27 147 -21 154 4 3 23
-1 44 -9 31 -12 47 -13 83 -4 38 9 45 15 45 36 0 40 -62 62 -132 46 -30 -7
-33 -5 -33 16 1 32 43 149 55 151 5 1 22 -17 37 -40 46 -68 145 -94 156 -41 1
8 -11 33 -27 56 -22 29 -42 44 -70 52 -55 15 -68 33 -46 66 23 36 86 104 95
104 5 0 14 -16 20 -36 24 -72 142 -125 156 -70 9 38 -29 112 -70 137 -20 12
-36 24 -36 27 0 9 67 52 80 52 5 0 10 -4 10 -9 0 -5 12 -17 27 -26 25 -16 27
-17 39 -1 8 11 9 28 4 51 -7 30 1 45 24 45 8 0 -9 -92 -22 -117 -14 -29 -15
-43 -4 -128 11 -90 41 -175 61 -175 4 0 11 24 15 54 11 95 15 98 81 66 22 -11
47 -19 56 -20 9 0 29 -6 44 -14 38 -20 192 -20 230 0 15 8 32 14 38 14 7 0 35
10 64 22 29 12 55 19 58 16 4 -3 10 -34 15 -68 5 -34 12 -65 15 -69 18 -18 55
76 55 141 0 20 5 40 10 43 14 8 13 81 -2 108 -6 12 -17 51 -23 86 l-12 64 32
36 c47 52 85 111 85 132 0 30 17 31 97 8 67 -20 78 -21 101 -8 42 24 64 76 60
144 -2 33 -11 74 -20 92 -15 31 -15 32 25 80 72 86 92 142 95 271 2 62 -1 126
-6 142 -10 27 -8 32 26 58 78 62 273 184 392 246 418 216 815 260 1092 120 52
-26 61 -22 73 36 12 62 57 193 92 268 88 187 274 403 463 536 127 90 346 197
495 241 122 37 317 75 383 75 70 0 78 7 96 73 25 93 117 271 193 372 392 524
1295 1023 2131 1177 40 7 74 18 75 23 4 19 -199 60 -453 92 -212 27 -729 24
-1005 -6 -764 -82 -1550 -294 -2334 -631 -213 -91 -529 -248 -666 -330 -138
-84 -211 -120 -241 -120 -11 0 -33 14 -47 30 -30 34 -32 34 -75 19 -27 -9 -36
-7 -84 24 -136 87 -220 224 -263 430 -6 31 -20 35 -34 10 -46 -88 -62 -397
-27 -522 21 -78 69 -175 102 -208 13 -13 24 -32 24 -43 0 -32 20 -74 52 -107
31 -32 31 -32 25 -115 -11 -143 -93 -440 -194 -698 -97 -246 -205 -424 -393
-642 l-92 -108 -59 41 c-33 22 -90 54 -127 70 -72 33 -237 79 -283 79 -15 0
-35 8 -45 18 -62 62 -112 68 -171 17 -24 -20 -52 -35 -66 -35 -42 0 -156 -29
-237 -61 -95 -36 -178 -86 -253 -151 l-58 -51 -36 34 c-66 63 -225 254 -299
357 -117 165 -216 376 -308 658 -57 172 -106 380 -113 472 -6 82 -6 83 25 115
32 33 52 75 52 107 0 11 11 30 24 43 33 33 81 130 102 208 35 125 19 434 -27
522 -14 25 -28 21 -34 -10 -43 -206 -127 -343 -263 -430 -48 -31 -57 -33 -84
-24 -43 15 -45 15 -75 -19 -14 -16 -36 -30 -47 -30 -30 0 -102 36 -241 120
-433 259 -1222 577 -1850 744 -726 194 -1449 278 -2015 235z m5624 -7691 c-4
-6 -10 -5 -15 3 -14 22 -10 33 6 19 8 -7 12 -17 9 -22z"/>
</g>
</svg>
